<svg
    viewBox="0 0 256 259"
    fill="#27ae60"
    xmlns="http://www.w3.org/2000/svg"
  >
    <path d="M256 152.048C256.003 166.146 251.039 179.797 241.973 190.619C232.907 201.442 220.315 208.748 206.396 211.263C192.476 213.778 178.112 211.342 165.811 204.38C153.509 197.418 144.052 186.373 139.088 173.171C139.042 212.762 141.591 239.104 179.29 259H76.6497C114.349 239.11 116.898 212.773 116.851 173.171C112.704 184.178 105.409 193.733 95.8706 200.652C86.3318 207.572 74.9669 211.554 63.1814 212.105C51.3959 212.656 39.7067 209.753 29.5594 203.754C19.4122 197.755 11.252 188.923 6.08791 178.352C0.92386 167.78 -1.0175 155.932 0.503915 144.272C2.02533 132.612 6.94279 121.653 14.6482 112.749C22.3535 103.845 32.5088 97.3868 43.8582 94.1735C55.2075 90.9601 67.253 91.1325 78.5051 94.6691C72.1719 85.6524 68.4418 75.0773 67.7208 64.0946C66.9998 53.112 69.3155 42.1427 74.4159 32.3806C79.5163 22.6184 87.206 14.4375 96.6481 8.72823C106.09 3.01894 116.923 0 127.967 0C139.011 0 149.844 3.01894 159.286 8.72823C168.728 14.4375 176.418 22.6184 181.518 32.3806C186.618 42.1427 188.934 53.112 188.213 64.0946C187.492 75.0773 183.762 85.6524 177.429 94.6691C186.475 91.826 196.066 91.146 205.426 92.6842C214.785 94.2225 223.649 97.9357 231.3 103.523C238.951 109.111 245.174 116.415 249.466 124.846C253.757 133.276 255.995 142.595 256 152.048Z" />
  </svg>